<svg xmlns="http://www.w3.org/2000/svg" viewBox="0 0 1084.55 329.89"><defs><style>.cls-1,.cls-3{fill:#002b3c;}.cls-2,.cls-4{fill:#ffec0a;}.cls-3,.cls-4{fill-rule:evenodd;}</style></defs><title>xcare_logo</title><g id="Layer_2" data-name="Layer 2"><g id="Layer_1-2" data-name="Layer 1"><path class="cls-1" d="M992.19,111.09c60.08,0,92.36,43.73,92.36,98.9,0,6.13-1.22,20-1.22,20H939.47c3.27,36.37,31.47,55.17,62.53,55.17,33.51,0,60.08-22.89,60.08-22.89l20,37.19s-31.87,29.84-83.78,29.84c-69.07,0-112-49.86-112-109.12C886.34,156.05,930.07,111.09,992.19,111.09Zm40,83.37c-.82-28.2-18.39-43.32-41.27-43.32-26.57,0-45,16.35-49.86,43.32Z"/><path class="cls-2" d="M987.25,106.15c60.08,0,92.36,43.73,92.36,98.9,0,6.13-1.22,20-1.22,20H934.53c3.27,36.37,31.47,55.17,62.53,55.17,33.51,0,60.08-22.89,60.08-22.89l20,37.19s-31.87,29.84-83.78,29.84c-69.06,0-112-49.86-112-109.12C881.4,151.11,925.13,106.15,987.25,106.15Zm40,83.37c-.81-28.2-18.39-43.32-41.27-43.32-26.57,0-45,16.35-49.86,43.32Z"/><path class="cls-1" d="M1081.94,329.33c-52.55-90.62-123.9-169.31-211.7-224,0,0-60.85-37.95-110.15-52.09A523.44,523.44,0,0,0,592,25.94c-183.44,0-317.53,81-402,180.79l108,122.46H204.61l-56.36-65.51a482,482,0,0,0-34.34,64.6H24.13a557.73,557.73,0,0,1,72.93-111.9L4.94,116.84H97.88l44.25,51.65C247.37,68.69,394.61,4.94,567.05,4.94A548,548,0,0,1,765,41.43s66.15,22.86,108.29,55.66C962,155.56,1033.39,237.38,1081.94,329.33Z"/><path class="cls-1" d="M617.54,193.64h6.94v-2.86c0-27.38-17.16-36.78-40.05-36.78-29.83,0-57.21,20-57.21,20L507.6,136.84s32.29-25.75,81.74-25.75c54.76,0,86.64,30.24,86.64,83V324.42H628.16V307.26a131.57,131.57,0,0,1,.82-14.71h-.82c.41,0-15.94,36.78-63.34,36.78-37.19,0-70.7-23.3-70.7-65C494.12,198.14,583.61,193.64,617.54,193.64Zm-39.65,95.23c27.39,0,47-29.43,47-54.77v-4.9h-9c-26.56,0-69.48,3.68-69.48,32.69C546.42,275.79,556.64,288.87,577.89,288.87Z"/><path class="cls-1" d="M387,111.09c54.36,0,80.1,31.06,80.1,31.06l-22.88,35.56s-21.66-22.48-54.36-22.48c-38.41,0-63.34,29-63.34,64.57,0,35.15,25.33,65.39,65,65.39,35.14,0,61.3-26.57,61.3-26.57l20,36.79S443,329.33,387,329.33c-69.06,0-113.2-48.64-113.2-109.12C273.84,161,318,111.09,387,111.09Z"/><path class="cls-3" d="M774.44,329.89c-14.51-1.09-23.6-5.44-22.57-19.48L765,174.75l-69.56-45.06c11.62-15.41,24.18-19.86,33.87-15.08l0-.06,62.81,38Z"/><path class="cls-3" d="M755.5,188l-65.07-43c-6.31,16.84-3.17,30.28,6.12,35.94v.2l56,39.23Z"/><path class="cls-3" d="M802,150.85l46.87-32.8,0,.21c10.84-8.71,23-8.89,32.06,2.56l-55.2,42.41-1.19,12.06L823,191.92l-10.28,107c-1.63,14.24-11.81,22.18-27.17,29Z"/><path class="cls-3" d="M832.06,204.14l40.12-31.09-.08-.33a41.24,41.24,0,0,0,13.34-39.5l-50.16,38.47Z"/><path class="cls-2" d="M1077,324.39c-52.55-90.62-123.9-169.31-211.7-224,0,0-60.85-38-110.15-52.1A523.42,523.42,0,0,0,587.06,21c-183.45,0-317.54,81-402,180.79l108,122.46H199.67l-56.36-65.51A482,482,0,0,0,109,323.34H19.19a557.73,557.73,0,0,1,72.93-111.9L0,111.9H92.94l44.25,51.65C242.43,63.75,389.67,0,562.11,0A548.17,548.17,0,0,1,760.06,36.49s66.15,22.86,108.29,55.66C957.08,150.62,1028.45,232.44,1077,324.39Z"/><path class="cls-2" d="M612.6,188.71h6.94v-2.86c0-27.39-17.16-36.79-40-36.79-29.83,0-57.21,20-57.21,20L502.66,131.9S535,106.15,584.4,106.15c54.76,0,86.64,30.24,86.64,83V319.48H623.22V302.32a131.57,131.57,0,0,1,.82-14.71h-.82c.41,0-15.94,36.78-63.34,36.78-37.19,0-70.7-23.3-70.7-65C489.18,193.2,578.67,188.71,612.6,188.71ZM573,283.93c27.39,0,47-29.43,47-54.77v-4.9h-9c-26.56,0-69.48,3.68-69.48,32.69C541.48,270.85,551.7,283.93,573,283.93Z"/><path class="cls-2" d="M382.1,106.15c54.36,0,80.1,31.06,80.1,31.06l-22.88,35.56S417.66,150.29,385,150.29c-38.41,0-63.34,29-63.34,64.57,0,35.15,25.34,65.39,65,65.39,35.14,0,61.3-26.56,61.3-26.56l20,36.78s-29.83,33.92-85.82,33.92c-69.06,0-113.2-48.63-113.2-109.12C268.9,156,313,106.15,382.1,106.15Z"/><path class="cls-4" d="M769.5,325c-14.51-1.09-23.6-5.44-22.57-19.48l13.16-135.66-69.56-45.06c11.62-15.41,24.19-19.86,33.87-15.08l0-.06,62.81,38Z"/><path class="cls-4" d="M750.56,183.05l-65.07-43c-6.31,16.84-3.17,30.28,6.12,35.94v.2l56,39.23Z"/><path class="cls-4" d="M797.08,145.91,844,113.11l0,.21c10.84-8.71,23-8.89,32.06,2.56l-55.2,42.41-1.18,12.06L818.1,187,807.82,294c-1.63,14.24-11.81,22.18-27.17,29Z"/><path class="cls-4" d="M827.12,199.2l40.12-31.09-.08-.32a41.25,41.25,0,0,0,13.34-39.51l-50.15,38.47Z"/></g></g></svg>