<svg xmlns="http://www.w3.org/2000/svg" xmlns:xlink="http://www.w3.org/1999/xlink" viewBox="0 0 28.6 39"><defs><style>.cls-1{fill:none;}.cls-2{clip-path:url(#clip-path);}.cls-3{fill:#fff;}</style><clipPath id="clip-path" transform="translate(-5.7 -0.5)"><rect class="cls-1" width="40" height="40"/></clipPath></defs><title>icon_tracker</title><g id="Layer_2" data-name="Layer 2"><g id="Layer_2-2" data-name="Layer 2"><g class="cls-2"><path class="cls-3" d="M33.65,1.8H25.2V1.15A.65.65,0,0,0,24.55.5h-9.1a.65.65,0,0,0-.65.65V1.8H6.35a.65.65,0,0,0-.65.65v36.4a.65.65,0,0,0,.65.65h27.3a.65.65,0,0,0,.65-.65V2.45a.65.65,0,0,0-.65-.65ZM16.1,1.8h7.8v2a.65.65,0,0,1-.65.65h-6.5a.65.65,0,0,1-.65-.65Zm.65,3.9H30.4V35.6H9.6V5.7ZM33,38.2H7V3.1h7.8v.65a1.82,1.82,0,0,0,.12.65H9a.65.65,0,0,0-.65.65v31.2A.65.65,0,0,0,9,36.9h22.1a.65.65,0,0,0,.65-.65V5.05a.65.65,0,0,0-.65-.65h-6a1.82,1.82,0,0,0,.12-.65V3.1H33Z" transform="translate(-5.7 -0.5)"/><path class="cls-3" d="M14.8,16.1a3.9,3.9,0,0,0,3-6.36l.76-1.06a.65.65,0,0,0-1.06-.76l-.68,1a3.9,3.9,0,1,0-2,7.22Zm0-6.5a2.45,2.45,0,0,1,1.27.35l-1.35,1.9L14,11.09A.65.65,0,0,0,13,12l1.3,1.3a.66.66,0,0,0,.46.19h0a.66.66,0,0,0,.48-.27L17,10.86a2.57,2.57,0,0,1,.38,1.34,2.6,2.6,0,1,1-2.6-2.6Z" transform="translate(-5.7 -0.5)"/><path class="cls-3" d="M14.8,25.2a3.9,3.9,0,0,0,3-6.36l.76-1.06A.65.65,0,0,0,17.52,17l-.68,1a3.9,3.9,0,1,0-2,7.22Zm0-6.5a2.45,2.45,0,0,1,1.27.35L14.72,21,14,20.19a.65.65,0,0,0-.92.92l1.3,1.3a.66.66,0,0,0,.46.19h0a.66.66,0,0,0,.48-.27L17,20a2.57,2.57,0,0,1,.38,1.34,2.6,2.6,0,1,1-2.6-2.6Z" transform="translate(-5.7 -0.5)"/><path class="cls-3" d="M14.8,34.3a3.9,3.9,0,0,0,3-6.36l.76-1.06a.65.65,0,0,0-1.06-.76l-.68,1a3.9,3.9,0,1,0-2,7.22Zm0-6.5a2.45,2.45,0,0,1,1.27.35l-1.35,1.9L14,29.29a.65.65,0,0,0-.92.92l1.3,1.3a.66.66,0,0,0,.46.19h0a.66.66,0,0,0,.48-.27L17,29.06a2.57,2.57,0,0,1,.38,1.34,2.6,2.6,0,1,1-2.6-2.6Z" transform="translate(-5.7 -0.5)"/><path class="cls-3" d="M21.3,12.2h5.85a.65.65,0,1,0,0-1.3H21.3a.65.65,0,1,0,0,1.3Z" transform="translate(-5.7 -0.5)"/><path class="cls-3" d="M21.3,14.8h5.85a.65.65,0,1,0,0-1.3H21.3a.65.65,0,0,0,0,1.3Z" transform="translate(-5.7 -0.5)"/><path class="cls-3" d="M21.3,21.3h5.85a.65.65,0,0,0,0-1.3H21.3a.65.65,0,0,0,0,1.3Z" transform="translate(-5.7 -0.5)"/><path class="cls-3" d="M21.3,23.9h5.85a.65.65,0,0,0,0-1.3H21.3a.65.65,0,1,0,0,1.3Z" transform="translate(-5.7 -0.5)"/><path class="cls-3" d="M21.3,30.4h5.85a.65.65,0,0,0,0-1.3H21.3a.65.65,0,1,0,0,1.3Z" transform="translate(-5.7 -0.5)"/><path class="cls-3" d="M21.3,33h5.85a.65.65,0,1,0,0-1.3H21.3a.65.65,0,1,0,0,1.3Z" transform="translate(-5.7 -0.5)"/></g></g></g></svg>