<svg xmlns="http://www.w3.org/2000/svg" viewBox="0 0 751.32 228.53"><defs><style>.cls-1,.cls-3{fill:#002b3c;}.cls-2,.cls-4{fill:#ffec0a;}.cls-3,.cls-4{fill-rule:evenodd;}</style></defs><title>xcare</title><g id="Layer_2" data-name="Layer 2"><g id="Layer_1-2" data-name="Layer 1"><path class="cls-1" d="M687.34,77c41.62,0,64,30.29,64,68.51,0,4.25-.85,13.87-.85,13.87H650.82c2.26,25.2,21.8,38.22,43.31,38.22,23.22,0,41.62-15.85,41.62-15.85l13.87,25.76s-22.08,20.67-58,20.67c-47.85,0-77.58-34.54-77.58-75.59C614,108.1,644.31,77,687.34,77Zm27.74,57.75c-.56-19.53-12.74-30-28.59-30-18.4,0-31.14,11.33-34.54,30Z"/><path class="cls-2" d="M683.92,73.54c41.62,0,64,30.29,64,68.51,0,4.25-.85,13.87-.85,13.87H647.4c2.26,25.2,21.8,38.22,43.31,38.22,23.22,0,41.62-15.85,41.62-15.85l13.87,25.76s-22.08,20.67-58,20.67c-47.85,0-77.58-34.54-77.58-75.59C610.59,104.68,640.88,73.54,683.92,73.54Zm27.74,57.75c-.56-19.53-12.74-30-28.59-30-18.4,0-31.14,11.33-34.54,30Z"/><path class="cls-1" d="M749.51,228.14C713.1,165.36,663.68,110.85,602.86,73c0,0-42.16-26.29-76.31-36.09A362.69,362.69,0,0,0,410.1,18C283,18,190.13,74.08,131.64,143.21L206.48,228H141.75l-39-45.37a332.82,332.82,0,0,0-23.79,44.75H16.72A385.54,385.54,0,0,1,67.24,149.9l-63.82-69H67.8l30.66,35.78C171.37,47.59,273.36,3.42,392.82,3.42A379.57,379.57,0,0,1,530,28.7s45.83,15.84,75,38.56C666.44,107.77,715.88,164.44,749.51,228.14Z"/><path class="cls-1" d="M427.8,134.15h4.81v-2c0-19-11.89-25.48-27.75-25.48-20.66,0-39.63,13.87-39.63,13.87L351.64,94.8S374,77,408.26,77c37.94,0,60,21,60,57.47v90.31H435.16V212.85a92.58,92.58,0,0,1,.56-10.19h-.56c.28,0-11,25.48-43.88,25.48-25.77,0-49-16.14-49-45C342.3,137.26,404.3,134.15,427.8,134.15Zm-27.47,66c19,0,32.56-20.38,32.56-37.94v-3.39h-6.23c-18.4,0-48.13,2.55-48.13,22.65C378.53,191.05,385.61,200.11,400.33,200.11Z"/><path class="cls-1" d="M268.12,77c37.66,0,55.49,21.51,55.49,21.51l-15.85,24.64s-15-15.58-37.66-15.58c-26.61,0-43.88,20.11-43.88,44.74,0,24.34,17.55,45.29,45,45.29,24.34,0,42.46-18.4,42.46-18.4l13.88,25.48s-20.67,23.5-59.46,23.5c-47.84,0-78.42-33.69-78.42-75.59C189.7,111.5,220.28,77,268.12,77Z"/><path class="cls-3" d="M536.49,228.53c-10-.75-16.35-3.77-15.63-13.5l9.11-94L481.79,89.84c8-10.68,16.75-13.76,23.46-10.44l0-.05,43.51,26.31Z"/><path class="cls-3" d="M523.37,130.23,478.3,100.44c-4.38,11.67-2.2,21,4.24,24.9v.14l38.8,27.18Z"/><path class="cls-3" d="M555.6,104.5l32.46-22.72,0,.14c7.51-6,15.92-6.16,22.2,1.78l-38.23,29.38-.82,8.35L570.16,133,563,207.07c-1.13,9.87-8.18,15.37-18.83,20.1Z"/><path class="cls-3" d="M576.41,141.42l27.79-21.54-.06-.23a28.54,28.54,0,0,0,9.25-27.36l-34.75,26.65Z"/><path class="cls-2" d="M746.09,224.72c-36.41-62.78-85.83-117.29-146.65-155.16,0,0-42.16-26.29-76.31-36.09A362.69,362.69,0,0,0,406.68,14.55c-127.08,0-220,56.11-278.46,125.24l74.84,84.83H138.32l-39-45.38A333.52,333.52,0,0,0,75.49,224H13.29a386.41,386.41,0,0,1,50.52-77.52L0,77.52H64.38L95,113.3C167.94,44.17,269.94,0,389.4,0A379.57,379.57,0,0,1,526.53,25.28s45.83,15.84,75,38.55C663,104.34,712.46,161,746.09,224.72Z"/><path class="cls-2" d="M424.38,130.73h4.81v-2c0-19-11.89-25.48-27.75-25.48-20.66,0-39.63,13.88-39.63,13.88L348.22,91.37s22.36-17.83,56.62-17.83c37.94,0,60,20.95,60,57.47v90.31H431.74V209.43a92.58,92.58,0,0,1,.56-10.19h-.56c.28,0-11.05,25.48-43.89,25.48-25.76,0-49-16.14-49-45C338.88,133.84,400.88,130.73,424.38,130.73Zm-27.47,66c19,0,32.56-20.38,32.56-37.94v-3.39h-6.23c-18.4,0-48.13,2.54-48.13,22.64C375.11,187.63,382.19,196.69,396.91,196.69Z"/><path class="cls-2" d="M264.7,73.54c37.65,0,55.49,21.51,55.49,21.51l-15.85,24.63s-15-15.57-37.66-15.57c-26.61,0-43.88,20.11-43.88,44.73,0,24.35,17.55,45.3,45,45.3,24.35,0,42.47-18.4,42.47-18.4l13.87,25.48s-20.66,23.5-59.45,23.5c-47.84,0-78.42-33.69-78.42-75.59C186.28,108.08,216.86,73.54,264.7,73.54Z"/><path class="cls-4" d="M533.07,225.11c-10.05-.75-16.35-3.77-15.64-13.5l9.12-94L478.37,86.42c8.05-10.68,16.75-13.76,23.45-10.44l0,0,43.51,26.31Z"/><path class="cls-4" d="M520,126.81,474.88,97c-4.38,11.66-2.2,21,4.23,24.9v.13l38.8,27.18Z"/><path class="cls-4" d="M552.18,101.08l32.46-22.73,0,.15c7.52-6,15.93-6.16,22.21,1.78l-38.23,29.37-.83,8.36-1.07,11.52-7.12,74.12c-1.13,9.87-8.19,15.37-18.83,20.1Z"/><path class="cls-4" d="M573,138l27.79-21.54-.06-.23A28.52,28.52,0,0,0,610,88.87l-34.74,26.65Z"/></g></g></svg>