<svg xmlns="http://www.w3.org/2000/svg" viewBox="0 0 453.7 138"><defs><style>.cls-1,.cls-3{fill:#002b3c;}.cls-2,.cls-4{fill:#ffec0a;}.cls-3,.cls-4{fill-rule:evenodd;}</style></defs><title>xcare_logo</title><g id="Layer_2" data-name="Layer 2"><g id="Layer_1-2" data-name="Layer 1"><path class="cls-1" d="M415.06,46.47c25.13,0,38.64,18.3,38.64,41.37,0,2.57-.52,8.38-.52,8.38H393c1.36,15.22,13.16,23.08,26.15,23.08,14,0,25.13-9.57,25.13-9.57l8.38,15.56a54.47,54.47,0,0,1-35.05,12.48c-28.89,0-46.84-20.86-46.84-45.65C370.78,65.28,389.07,46.47,415.06,46.47Zm16.75,34.88c-.34-11.8-7.69-18.12-17.26-18.12-11.12,0-18.81,6.84-20.86,18.12Z"/><path class="cls-2" d="M413,44.41c25.14,0,38.64,18.29,38.64,41.37,0,2.56-.51,8.38-.51,8.38H390.94c1.37,15.21,13.16,23.08,26.16,23.08,14,0,25.13-9.58,25.13-9.58l8.38,15.56a54.5,54.5,0,0,1-35.05,12.48c-28.89,0-46.85-20.86-46.85-45.65C368.71,63.21,387,44.41,413,44.41Zm16.76,34.87c-.34-11.79-7.69-18.12-17.27-18.12-11.11,0-18.8,6.84-20.86,18.12Z"/><path class="cls-1" d="M452.6,137.77c-22-37.91-51.83-70.83-88.56-93.7,0,0-25.45-15.88-46.08-21.79a219,219,0,0,0-70.31-11.43c-76.74,0-132.83,33.88-168.16,75.63l45.2,51.23H85.59L62,110.31a201,201,0,0,0-14.37,27H10.09A233.76,233.76,0,0,1,40.6,90.52L2.07,48.88H40.94l18.52,21.6c44-41.74,105.61-68.41,177.75-68.41A229.18,229.18,0,0,1,320,17.33s27.67,9.56,45.3,23.28C402.44,65.08,432.3,99.3,452.6,137.77Z"/><path class="cls-1" d="M258.33,81h2.91v-1.2c0-11.45-7.18-15.39-16.76-15.39-12.48,0-23.93,8.38-23.93,8.38l-8.21-15.56a58.84,58.84,0,0,1,34.2-10.77c22.9,0,36.24,12.65,36.24,34.71v54.53h-20v-7.18a55.46,55.46,0,0,1,.34-6.15h-.34c.17,0-6.67,15.39-26.5,15.39-15.56,0-29.58-9.75-29.58-27.19C206.7,82.89,244.14,81,258.33,81Zm-16.58,39.83c11.45,0,19.66-12.31,19.66-22.91V95.88h-3.76c-11.11,0-29.07,1.54-29.07,13.68C228.58,115.37,232.86,120.84,241.75,120.84Z"/><path class="cls-1" d="M161.91,46.47c22.74,0,33.51,13,33.51,13l-9.58,14.87s-9.06-9.4-22.73-9.4c-16.07,0-26.5,12.14-26.5,27,0,14.7,10.6,27.35,27.18,27.35,14.7,0,25.64-11.11,25.64-11.11l8.38,15.39s-12.48,14.19-35.9,14.19c-28.89,0-47.36-20.35-47.36-45.65C114.55,67.33,133,46.47,161.91,46.47Z"/><path class="cls-3" d="M324,138c-6.07-.45-9.88-2.27-9.44-8.15L320,73.1l-29.1-18.85c4.87-6.45,10.12-8.31,14.17-6.3l0,0,26.27,15.89Z"/><path class="cls-3" d="M316,78.64l-27.21-18c-2.65,7.05-1.33,12.67,2.56,15v.08l23.44,16.41Z"/><path class="cls-3" d="M335.51,63.11l19.6-13.73v.09c4.54-3.64,9.62-3.72,13.42,1.07L345.45,68.28l-.5,5-.65,7L340,125.05c-.68,6-4.94,9.27-11.37,12.13Z"/><path class="cls-3" d="M348.07,85.4l16.79-13,0-.13a17.25,17.25,0,0,0,5.58-16.53l-21,16.09Z"/><path class="cls-2" d="M450.54,135.7C428.55,97.79,398.71,64.88,362,42c0,0-25.46-15.88-46.08-21.8A219.07,219.07,0,0,0,245.58,8.78c-76.74,0-132.83,33.89-168.15,75.63l45.19,51.23H83.53L60,108.24a201,201,0,0,0-14.37,27H8A233.18,233.18,0,0,1,38.54,88.45L0,46.81H38.88L57.39,68.42C101.42,26.67,163,0,235.14,0A229.15,229.15,0,0,1,318,15.27s27.68,9.56,45.3,23.28C400.37,63,430.23,97.24,450.54,135.7Z"/><path class="cls-2" d="M256.27,78.94h2.9v-1.2c0-11.45-7.18-15.38-16.75-15.38-12.48,0-23.94,8.37-23.94,8.37l-8.2-15.55a58.79,58.79,0,0,1,34.19-10.77c22.91,0,36.24,12.65,36.24,34.7v54.54h-20v-7.18a55.76,55.76,0,0,1,.34-6.16h-.34c.17,0-6.67,15.39-26.5,15.39-15.56,0-29.57-9.74-29.57-27.18C204.64,80.82,242.07,78.94,256.27,78.94Zm-16.59,39.84c11.46,0,19.66-12.31,19.66-22.91V93.81h-3.76c-11.11,0-29.06,1.54-29.06,13.68C226.52,113.3,230.79,118.78,239.68,118.78Z"/><path class="cls-2" d="M159.84,44.41c22.74,0,33.51,13,33.51,13l-9.57,14.87s-9.06-9.4-22.74-9.4c-16.07,0-26.5,12.14-26.5,27,0,14.71,10.6,27.36,27.18,27.36,14.71,0,25.65-11.12,25.65-11.12l8.37,15.39s-12.47,14.19-35.9,14.19c-28.89,0-47.35-20.34-47.35-45.65C112.49,65.26,131,44.41,159.84,44.41Z"/><path class="cls-4" d="M321.9,135.93c-6.07-.45-9.87-2.27-9.44-8.14L318,71,288.87,52.19c4.86-6.45,10.11-8.31,14.16-6.31l0,0,26.27,15.89Z"/><path class="cls-4" d="M314,76.57l-27.22-18c-2.64,7-1.33,12.66,2.56,15v.08l23.43,16.42Z"/><path class="cls-4" d="M333.44,61l19.61-13.72v.08c4.53-3.64,9.61-3.72,13.41,1.08L343.38,66.22l-.5,5-.65,7L337.93,123c-.68,6-4.94,9.28-11.36,12.14Z"/><path class="cls-4" d="M346,83.33l16.78-13,0-.13a17.25,17.25,0,0,0,5.59-16.53l-21,16.1Z"/></g></g></svg>